<?xml version="1.0" encoding="UTF-8"?>
<svg width="50px" height="67px" viewBox="0 0 50 67" version="1.1" xmlns="http://www.w3.org/2000/svg" xmlns:xlink="http://www.w3.org/1999/xlink">
    <!-- Generator: Sketch 52.6 (67491) - http://www.bohemiancoding.com/sketch -->
    <title>clipboard</title>
    <desc>Created with Sketch.</desc>
    <g id="Page-1" stroke="none" stroke-width="1" fill="none" fill-rule="evenodd">
        <g id="clipboard" fill="#FFFFFF">
            <g id="Group" transform="translate(20.854922, 15.155440)">
                <g id="Path">
                    <path d="M11.6067358,6.99158031 L1.05660622,6.99158031 C0.52007772,6.99158031 0.0851036269,6.55673575 0.0851036269,6.02007772 C0.0851036269,5.48341969 0.52007772,5.04857513 1.05660622,5.04857513 L11.6067358,5.04857513 C12.1432642,5.04857513 12.5782383,5.48341969 12.5782383,6.02007772 C12.5782383,6.55673575 12.1433938,6.99158031 11.6067358,6.99158031 Z"></path>
                    <path d="M22.1569948,2.00492228 L1.05660622,2.00492228 C0.52007772,2.00492228 0.0851036269,1.57007772 0.0851036269,1.03341969 C0.0851036269,0.496761658 0.52007772,0.0619170984 1.05660622,0.0619170984 L22.1569948,0.0619170984 C22.6935233,0.0619170984 23.1284974,0.496761658 23.1284974,1.03341969 C23.1284974,1.57007772 22.6935233,2.00492228 22.1569948,2.00492228 Z"></path>
                </g>
                <g transform="translate(0.000000, 16.321244)" id="Path">
                    <path d="M11.6067358,6.95103627 L1.05660622,6.95103627 C0.52007772,6.95103627 0.0851036269,6.51619171 0.0851036269,5.97953368 C0.0851036269,5.44287565 0.52007772,5.00803109 1.05660622,5.00803109 L11.6067358,5.00803109 C12.1432642,5.00803109 12.5782383,5.44287565 12.5782383,5.97953368 C12.5782383,6.51619171 12.1433938,6.95103627 11.6067358,6.95103627 Z"></path>
                    <path d="M22.1569948,1.9642487 L1.05660622,1.9642487 C0.52007772,1.9642487 0.0851036269,1.52940415 0.0851036269,0.992746114 C0.0851036269,0.456088083 0.52007772,0.0212435233 1.05660622,0.0212435233 L22.1569948,0.0212435233 C22.6935233,0.0212435233 23.1284974,0.456088083 23.1284974,0.992746114 C23.1284974,1.52940415 22.6935233,1.9642487 22.1569948,1.9642487 Z"></path>
                </g>
                <g transform="translate(0.000000, 32.512953)" id="Path">
                    <path d="M11.6067358,7.04002591 L1.05660622,7.04002591 C0.52007772,7.04002591 0.0851036269,6.60518135 0.0851036269,6.06852332 C0.0851036269,5.53186528 0.52007772,5.09702073 1.05660622,5.09702073 L11.6067358,5.09702073 C12.1432642,5.09702073 12.5782383,5.53186528 12.5782383,6.06852332 C12.5782383,6.60518135 12.1433938,7.04002591 11.6067358,7.04002591 Z"></path>
                    <path d="M22.1569948,2.05323834 L1.05660622,2.05323834 C0.52007772,2.05323834 0.0851036269,1.61839378 0.0851036269,1.08173575 C0.0851036269,0.54507772 0.52007772,0.110233161 1.05660622,0.110233161 L22.1569948,0.110233161 C22.6935233,0.110233161 23.1284974,0.54507772 23.1284974,1.08173575 C23.1284974,1.61839378 22.6935233,2.05323834 22.1569948,2.05323834 Z"></path>
                </g>
            </g>
            <path d="M33.4005181,9.15168394 L16.5994819,9.15168394 C15.0025907,9.15168394 13.7033679,7.85259067 13.7033679,6.25569948 L13.7033679,2.89611399 C13.7034974,1.2992228 15.0025907,-7.10542736e-15 16.5994819,-7.10542736e-15 L33.4003886,-7.10542736e-15 C34.9972798,-7.10542736e-15 36.2965026,1.2992228 36.2965026,2.89611399 L36.2965026,6.25569948 C36.2965026,7.85259067 34.9974093,9.15168394 33.4005181,9.15168394 Z M16.5994819,1.94300518 C16.0739637,1.94300518 15.6463731,2.37059585 15.6463731,2.89611399 L15.6463731,6.25569948 C15.6463731,6.78121762 16.0739637,7.20867876 16.5994819,7.20867876 L33.4003886,7.20867876 C33.9259067,7.20867876 34.3534974,6.78108808 34.3534974,6.25569948 L34.3534974,2.89611399 C34.3534974,2.37046632 33.9259067,1.94300518 33.4003886,1.94300518 L16.5994819,1.94300518 Z" id="Shape" fill-rule="nonzero"></path>
            <g id="Group" transform="translate(5.958549, 13.860104)" fill-rule="nonzero">
                <path d="M6.98406736,9.58911917 L2.66632124,9.58911917 C1.22810881,9.58911917 0.0580310881,8.41904145 0.0580310881,6.98082902 L0.0580310881,2.66321244 C0.0580310881,1.225 1.22810881,0.0549222798 2.66632124,0.0549222798 L6.98406736,0.0549222798 C8.42227979,0.0549222798 9.59235751,1.225 9.59235751,2.66321244 L9.59235751,6.98095855 C9.59235751,8.41904145 8.42227979,9.58911917 6.98406736,9.58911917 Z M2.66632124,1.99792746 C2.29948187,1.99792746 2.00103627,2.29637306 2.00103627,2.66321244 L2.00103627,6.98095855 C2.00103627,7.34779793 2.29948187,7.64624352 2.66632124,7.64624352 L6.98406736,7.64624352 C7.35090674,7.64624352 7.64935233,7.34779793 7.64935233,6.98095855 L7.64935233,2.66321244 C7.64935233,2.29637306 7.35090674,1.99792746 6.98406736,1.99792746 L2.66632124,1.99792746 Z" id="Shape"></path>
                <path d="M6.98406736,25.8698187 L2.66632124,25.8698187 C1.22810881,25.8698187 0.0580310881,24.6997409 0.0580310881,23.2615285 L0.0580310881,18.9437824 C0.0580310881,17.5055699 1.22810881,16.3354922 2.66632124,16.3354922 L6.98406736,16.3354922 C8.42227979,16.3354922 9.59235751,17.5055699 9.59235751,18.9437824 L9.59235751,23.2615285 C9.59235751,24.6997409 8.42227979,25.8698187 6.98406736,25.8698187 Z M2.66632124,18.2784974 C2.29948187,18.2784974 2.00103627,18.576943 2.00103627,18.9437824 L2.00103627,23.2615285 C2.00103627,23.6283679 2.29948187,23.9268135 2.66632124,23.9268135 L6.98406736,23.9268135 C7.35090674,23.9268135 7.64935233,23.6283679 7.64935233,23.2615285 L7.64935233,18.9437824 C7.64935233,18.576943 7.35090674,18.2784974 6.98406736,18.2784974 L2.66632124,18.2784974 Z" id="Shape"></path>
                <path d="M6.98406736,42.1505181 L2.66632124,42.1505181 C1.22810881,42.1505181 0.0580310881,40.9804404 0.0580310881,39.5420984 L0.0580310881,35.2244819 C0.0580310881,33.7861399 1.22810881,32.6160622 2.66632124,32.6160622 L6.98406736,32.6160622 C8.42227979,32.6160622 9.59235751,33.7861399 9.59235751,35.2244819 L9.59235751,39.5420984 C9.59235751,40.9804404 8.42227979,42.1505181 6.98406736,42.1505181 Z M2.66632124,34.5591969 C2.29948187,34.5591969 2.00103627,34.857772 2.00103627,35.2246114 L2.00103627,39.542228 C2.00103627,39.9090674 2.29948187,40.2076425 2.66632124,40.2076425 L6.98406736,40.2076425 C7.35090674,40.2076425 7.64935233,39.9090674 7.64935233,39.542228 L7.64935233,35.2246114 C7.64935233,34.857772 7.35090674,34.5591969 6.98406736,34.5591969 L2.66632124,34.5591969 Z" id="Shape"></path>
            </g>
            <path d="M45.667228,66.3212435 L4.33277202,66.3212435 C2.01204663,66.3212435 0.124093264,64.4332902 0.124093264,62.1125648 L0.124093264,7.81295337 C0.124093264,5.49235751 2.01217617,3.60440415 4.33277202,3.60440415 L10.1546632,3.60440415 C10.6911917,3.60440415 11.1261658,4.0392487 11.1261658,4.57590674 C11.1261658,5.11256477 10.6911917,5.54740933 10.1546632,5.54740933 L4.33277202,5.54740933 C3.08341969,5.54740933 2.06709845,6.56373057 2.06709845,7.81295337 L2.06709845,62.1124352 C2.06709845,63.3617876 3.08354922,64.3781088 4.33277202,64.3781088 L45.667228,64.3781088 C46.9165803,64.3781088 47.9329016,63.361658 47.9329016,62.1124352 L47.9329016,7.81295337 C47.9329016,6.56360104 46.9164508,5.54740933 45.667228,5.54740933 L39.8453368,5.54740933 C39.3088083,5.54740933 38.8738342,5.11256477 38.8738342,4.57590674 C38.8738342,4.0392487 39.3088083,3.60440415 39.8453368,3.60440415 L45.667228,3.60440415 C47.9879534,3.60440415 49.8759067,5.49235751 49.8759067,7.81295337 L49.8759067,62.1124352 C49.8759067,64.4332902 47.9878238,66.3212435 45.667228,66.3212435 Z" id="Path"></path>
        </g>
    </g>
</svg>