<?xml version="1.0" encoding="UTF-8"?>
<svg width="50px" height="48px" viewBox="0 0 50 48" version="1.1" xmlns="http://www.w3.org/2000/svg" xmlns:xlink="http://www.w3.org/1999/xlink">
    <!-- Generator: Sketch 52.6 (67491) - http://www.bohemiancoding.com/sketch -->
    <title>home</title>
    <desc>Created with Sketch.</desc>
    <g id="Page-1" stroke="none" stroke-width="1" fill="none" fill-rule="evenodd">
        <g id="home" fill="#FFFFFF" fill-rule="nonzero">
            <path d="M49.1602539,21.1800781 L44.9363281,17.3313477 L44.9363281,4.56933594 C44.9363281,3.75732422 44.2780273,3.09892578 43.465918,3.09892578 L33.2984375,3.09892578 C32.4864258,3.09892578 31.8280273,3.75722656 31.8280273,4.56933594 L31.8280273,5.38710938 L26.7268555,0.738964844 C25.7421875,-0.158398437 24.2573242,-0.158300781 23.2730469,0.738867187 L0.839648438,21.1801758 C0.0509765625,21.8989258 -0.209667969,23.0063477 0.175683594,24.0013672 C0.561132813,24.9963867 1.49960938,25.6392578 2.56669922,25.6392578 L6.14960938,25.6392578 L6.14960938,46.1198242 C6.14960938,46.9318359 6.80791016,47.5902344 7.62001953,47.5902344 L19.9162109,47.5902344 C20.7282227,47.5902344 21.3866211,46.9319336 21.3866211,46.1198242 L21.3866211,33.684668 L28.6132812,33.684668 L28.6132812,46.1199219 C28.6132812,46.9319336 29.271582,47.590332 30.0836914,47.590332 L42.3793945,47.590332 C43.1914062,47.590332 43.8498047,46.9320313 43.849707,46.1199219 L43.849707,25.6393555 L47.4333984,25.6393555 C48.5003906,25.6393555 49.4389648,24.9963867 49.8244141,24.0014648 C50.209668,23.0063477 49.9491211,21.8989258 49.1602539,21.1800781 Z M42.3793945,22.6985352 C41.5673828,22.6985352 40.9089844,23.3568359 40.9089844,24.1689453 L40.9089844,44.6495117 L31.5541992,44.6495117 L31.5541992,32.2142578 C31.5541992,31.4022461 30.8958008,30.7438477 30.0837891,30.7438477 L19.9162109,30.7438477 C19.1041992,30.7438477 18.4458008,31.4021484 18.4458008,32.2142578 L18.4458008,44.6495117 L9.09033203,44.6495117 L9.09033203,24.1689453 C9.09033203,23.3569336 8.43203125,22.6985352 7.61992188,22.6985352 L3.53955078,22.6985352 L25.0000977,3.14384766 L32.3083008,9.803125 C32.7387695,10.1953125 33.3601562,10.2963867 33.8926758,10.0613281 C34.425293,9.82597656 34.7689453,9.2984375 34.7689453,8.71621094 L34.7689453,6.03974609 L41.9957031,6.03974609 L41.9957031,17.9807617 C41.9957031,18.3945312 42.1699219,18.7889648 42.4757812,19.0676758 L46.4604492,22.6985352 L42.3793945,22.6985352 Z" id="Shape"></path>
        </g>
    </g>
</svg>