<?xml version="1.0" encoding="UTF-8"?>
<svg width="50px" height="55px" viewBox="0 0 50 55" version="1.1" xmlns="http://www.w3.org/2000/svg" xmlns:xlink="http://www.w3.org/1999/xlink">
    <!-- Generator: Sketch 52.6 (67491) - http://www.bohemiancoding.com/sketch -->
    <title>report</title>
    <desc>Created with Sketch.</desc>
    <g id="Page-1" stroke="none" stroke-width="1" fill="none" fill-rule="evenodd">
        <g id="A4" transform="translate(-46.000000, -432.000000)" fill="#FFFFFF">
            <g id="report" transform="translate(46.000000, 432.000000)">
                <path d="M40.4529033,0 L11.4544047,0 C11.4050596,0.000508861146 11.3558548,0.00528680092 11.3073559,0.0142789052 C11.3022208,0.0142789052 11.2970858,0.0142789052 11.2919508,0.0142789052 C11.2236441,0.0286753516 11.1575625,0.0519065493 11.0954188,0.0833703822 C11.0790801,0.0912007496 11.0641418,0.0994917268 11.0487366,0.108703924 C10.9861817,0.143080524 10.9284323,0.185351736 10.8769463,0.234450412 L0.239012855,10.7331306 C0.188534861,10.7843396 0.145205177,10.8419634 0.11017006,10.9044775 C0.102234091,10.9187564 0.0942981215,10.9325747 0.086828974,10.9473142 C0.0544851868,11.0097056 0.0304771246,11.0759717 0.0154052505,11.1444552 L0.0154052505,11.1527462 C0.00552007501,11.2023687 0.000362554646,11.2527949 1.33723704e-07,11.3033656 L1.33723704e-07,53.9558374 C-0.000123803054,54.1696572 0.0859064048,54.3747546 0.239138876,54.525948 C0.392371346,54.6771415 0.600234744,54.7620269 0.816938147,54.7619046 L40.4529033,54.7619046 C40.9040857,54.7619046 41.2698413,54.401016 41.2698413,53.9558374 L41.2698413,0.806067231 C41.2698413,0.360888592 40.9040857,8.18207451e-16 40.4529033,0 Z M10.6374667,2.75214383 L10.6374667,10.4972984 L2.78785946,10.4972984 L10.6374667,2.75214383 Z M39.6359652,53.1479277 L1.63247569,53.1479277 L1.63247569,12.1075904 L11.4544047,12.1075904 C11.9054804,12.1073363 12.2710852,11.7465965 12.2713427,11.3015232 L12.2713427,1.61213446 L39.6359652,1.61213446 L39.6359652,53.1479277 Z" id="Shape" fill-rule="nonzero"></path>
                <path d="M49.9926235,12.7103794 C49.9926235,12.6903908 49.9926235,12.6704022 49.9896729,12.6504136 L49.2412032,7.84013387 C49.1800902,7.43990509 48.8172532,7.14286888 48.3894624,7.14285714 L45.2598559,7.14285714 C44.8320652,7.14286888 44.4692281,7.43990509 44.4081151,7.84013387 L43.6596455,12.6504136 C43.6566949,12.6704022 43.6596455,12.6903908 43.6566949,12.7103794 C43.6537443,12.730368 43.6507937,12.7484972 43.6507937,12.7689506 L43.6507937,38.8717374 C43.6507937,38.8889369 43.6547278,38.9047418 43.6557113,38.9210116 C43.6570955,38.9492053 43.6602153,38.9772989 43.6650549,39.0051497 C43.6703012,39.034032 43.6773624,39.0625935 43.6862009,39.0906823 C43.6906268,39.1060224 43.6921021,39.1218273 43.6975115,39.1371674 L46.0088174,45.4833153 C46.1284673,45.8114901 46.4552298,46.031746 46.8224462,46.031746 C47.1896626,46.031746 47.5164251,45.8114901 47.6360751,45.4833153 L49.9532821,39.1394917 C49.9586916,39.1241516 49.9601669,39.1083466 49.9645928,39.0930065 C49.9734313,39.0649177 49.9804924,39.0363563 49.9857388,39.0074739 C49.9905784,38.9796231 49.9936982,38.9515296 49.9950823,38.9233359 C49.9950823,38.9070661 50,38.8912611 50,38.8740617 L50,12.7689506 C50,12.7484972 49.9955741,12.7299031 49.9926235,12.7103794 Z M48.2773395,28.4976542 L45.3719789,28.4976542 L45.3719789,13.5824402 L48.2773395,13.5824402 L48.2773395,28.4976542 Z M45.3719789,30.1246333 L48.2773395,30.1246333 L48.2773395,38.0582479 L45.3719789,38.0582479 L45.3719789,30.1246333 Z M47.6464022,8.77216043 L48.1416117,11.9554611 L45.5077066,11.9554611 L46.0029162,8.77216043 L47.6464022,8.77216043 Z M46.8246592,42.7211698 L45.718183,39.6852269 L47.9311354,39.6852269 L46.8246592,42.7211698 Z" id="Shape" fill-rule="nonzero"></path>
                <path d="M31.734153,21.4285714 L8.74203751,21.4285714 C8.29715581,21.4285714 7.93650794,21.783901 7.93650794,22.2222222 C7.93650794,22.6605435 8.29715581,23.015873 8.74203751,23.015873 L31.734153,23.015873 C32.1790347,23.015873 32.5396825,22.6605435 32.5396825,22.2222222 C32.5396825,21.783901 32.1790347,21.4285714 31.734153,21.4285714 Z" id="Path"></path>
                <path d="M31.734153,26.1904762 L8.74203751,26.1904762 C8.29715581,26.1904762 7.93650794,26.5458058 7.93650794,26.984127 C7.93650794,27.4224482 8.29715581,27.7777778 8.74203751,27.7777778 L31.734153,27.7777778 C32.1790347,27.7777778 32.5396825,27.4224482 32.5396825,26.984127 C32.5396825,26.5458058 32.1790347,26.1904762 31.734153,26.1904762 Z" id="Path"></path>
                <path d="M31.734153,16.6666667 L8.74203751,16.6666667 C8.29715581,16.6666667 7.93650794,17.0219962 7.93650794,17.4603175 C7.93650794,17.8986387 8.29715581,18.2539683 8.74203751,18.2539683 L31.734153,18.2539683 C32.1790347,18.2539683 32.5396825,17.8986387 32.5396825,17.4603175 C32.5396825,17.0219962 32.1790347,16.6666667 31.734153,16.6666667 Z" id="Path"></path>
                <path d="M19.878819,7.93650794 L32.5021334,7.93650794 C32.9611925,7.93650794 33.3333333,7.58117837 33.3333333,7.14285714 C33.3333333,6.70453591 32.9611925,6.34920635 32.5021334,6.34920635 L19.878819,6.34920635 C19.4197599,6.34920635 19.047619,6.70453591 19.047619,7.14285714 C19.047619,7.58117837 19.4197599,7.93650794 19.878819,7.93650794 Z" id="Path"></path>
                <path d="M11.8794119,39.6825397 L8.75550887,39.6825397 C8.30318722,39.6825397 7.93650807,40.0513773 7.93650807,40.5063616 L7.93650807,47.5888764 C7.93638382,47.8074058 8.02263126,48.0170208 8.17625064,48.1715444 C8.32987003,48.3260681 8.53825828,48.4128233 8.75550887,48.4126983 L11.8794119,48.4126983 C12.3317336,48.4126983 12.6984127,48.0438606 12.6984127,47.5888764 L12.6984127,40.5063616 C12.6981545,40.0514849 12.3316266,39.6827994 11.8794119,39.6825397 Z M11.0604111,46.7650544 L9.57450966,46.7650544 L9.57450966,41.3301835 L11.0604111,41.3301835 L11.0604111,46.7650544 Z" id="Shape" fill-rule="nonzero"></path>
                <path d="M19.0222686,34.1269841 L15.8983659,34.1269841 C15.6810293,34.127107 15.4726435,34.212708 15.3190511,34.3649559 C15.1654586,34.5172039 15.0792411,34.7236273 15.0793652,34.9388155 L15.0793652,46.8081428 C15.0793652,47.2559931 15.4460443,47.6190475 15.8983659,47.6190475 L19.0222686,47.6190475 C19.2395192,47.6191705 19.4479074,47.5337757 19.6015268,47.3816749 C19.7551461,47.2295741 19.8413936,47.0232458 19.8412693,46.8081428 L19.8412693,34.9388155 C19.8415177,34.7235897 19.7553401,34.5170948 19.6017207,34.3648202 C19.4481014,34.2125455 19.2396434,34.126984 19.0222686,34.1269841 Z M18.2032679,45.9963114 L16.7173666,45.9963114 L16.7173666,35.7487934 L18.2032679,35.7487934 L18.2032679,45.9963114 Z" id="Shape" fill-rule="nonzero"></path>
                <path d="M25.3715559,36.5079365 L22.2474918,36.5079365 C21.7952146,36.5079365 21.4285714,36.8805109 21.4285714,37.3401048 L21.4285714,47.5805301 C21.4285714,48.040124 21.7952146,48.4126984 22.2474918,48.4126984 L25.3715559,48.4126984 C25.8238331,48.4126984 26.1904762,48.040124 26.1904762,47.5805301 L26.1904762,37.3401048 C26.1904762,36.8805109 25.8238331,36.5079365 25.3715559,36.5079365 Z M24.5526355,46.7483618 L23.0664121,46.7483618 L23.0664121,38.1722731 L24.5526355,38.1722731 L24.5526355,46.7483618 Z" id="Shape" fill-rule="nonzero"></path>
                <path d="M32.5142519,30.952381 L29.39051,30.952381 C28.9381439,30.952381 28.5714287,31.311068 28.5714287,31.7535309 L28.5714287,46.8178975 C28.5713044,47.0304129 28.6575604,47.2342592 28.8111948,47.3845303 C28.9648293,47.5348014 29.173238,47.619169 29.39051,47.6190475 L32.5142519,47.6190475 C32.7315239,47.619169 32.9399326,47.5348014 33.0935671,47.3845303 C33.2472016,47.2342592 33.3334575,47.0304129 33.3333332,46.8178975 L33.3333332,31.7535309 C33.3333332,31.311068 32.966618,30.952381 32.5142519,30.952381 Z M31.6951707,46.0167475 L30.2095913,46.0167475 L30.2095913,32.5546809 L31.6951707,32.5546809 L31.6951707,46.0167475 Z" id="Shape" fill-rule="nonzero"></path>
            </g>
        </g>
    </g>
</svg>