<?xml version="1.0" encoding="UTF-8"?>
<svg width="50px" height="53px" viewBox="0 0 50 53" version="1.1" xmlns="http://www.w3.org/2000/svg" xmlns:xlink="http://www.w3.org/1999/xlink">
    <!-- Generator: Sketch 52.6 (67491) - http://www.bohemiancoding.com/sketch -->
    <title>bar-chart</title>
    <desc>Created with Sketch.</desc>
    <g id="Page-1" stroke="none" stroke-width="1" fill="none" fill-rule="evenodd">
        <g id="A4" transform="translate(-239.000000, -189.000000)" fill="#FFFFFF">
            <g id="bar-chart" transform="translate(239.000000, 189.000000)">
                <path d="M48.9093621,50.617284 L46.6528807,50.617284 L46.6528807,17.8534979 C46.6528807,16.3284979 45.4121399,15.0878601 43.8872428,15.0878601 L38.8436214,15.0878601 C37.3186214,15.0878601 36.0779835,16.3286008 36.0779835,17.8534979 L36.0779835,50.617284 L30.3483539,50.617284 L30.3483539,32.6980453 C30.3483539,31.1730453 29.107716,29.9324074 27.582716,29.9324074 L22.5390947,29.9324074 C21.0140947,29.9324074 19.7734568,31.1731481 19.7734568,32.6980453 L19.7734568,50.617284 L14.0438272,50.617284 L14.0438272,41.337037 C14.0438272,39.812037 12.8030864,38.5713992 11.2781893,38.5713992 L6.23446502,38.5713992 C4.70946502,38.5713992 3.46882716,39.8121399 3.46882716,41.337037 L3.46882716,50.617284 L1.09063786,50.617284 C0.522427984,50.617284 0.0618312757,51.0778807 0.0618312757,51.6460905 C0.0618312757,52.2143004 0.522427984,52.6748971 1.09063786,52.6748971 L48.9093621,52.6748971 C49.477572,52.6748971 49.9381687,52.2143004 49.9381687,51.6460905 C49.9381687,51.0778807 49.477572,50.617284 48.9093621,50.617284 Z M11.9860082,50.617284 L5.52633745,50.617284 L5.52633745,41.337037 C5.52633745,40.9466049 5.84393004,40.6290123 6.23436214,40.6290123 L11.2779835,40.6290123 C11.6684156,40.6290123 11.9860082,40.9466049 11.9860082,41.337037 L11.9860082,50.617284 Z M28.2906379,50.617284 L21.8309671,50.617284 L21.8309671,32.6980453 C21.8309671,32.3076132 22.1485597,31.9900206 22.5389918,31.9900206 L27.5826132,31.9900206 C27.9729424,31.9900206 28.2906379,32.3076132 28.2906379,32.6980453 L28.2906379,50.617284 Z M44.5952675,50.617284 L38.1355967,50.617284 L38.1355967,17.8534979 C38.1355967,17.4630658 38.4531893,17.1454733 38.8436214,17.1454733 L43.8872428,17.1454733 C44.2776749,17.1454733 44.5952675,17.4630658 44.5952675,17.8534979 L44.5952675,50.617284 Z" id="Shape" fill-rule="nonzero"></path>
                <path d="M46.6504115,1.081893 C46.6648148,0.801131687 46.5660494,0.51563786 46.3516461,0.301234568 C46.1372428,0.0868312757 45.851749,-0.012037037 45.5709877,0.0024691358 C45.5544239,0.00174897119 45.5380658,0 45.5211934,0 L39.2969136,0 C38.7287037,0 38.268107,0.460596708 38.268107,1.02880658 C38.268107,1.59701646 38.7287037,2.05761317 39.2969136,2.05761317 L43.1402263,2.05761317 L32.9697531,12.2281893 L29.1343621,8.39279835 C28.9414609,8.19989712 28.6797325,8.09146091 28.406893,8.09146091 C28.1340535,8.09146091 27.8723251,8.19989712 27.6794239,8.39279835 L9.18467078,26.8876543 C8.78292181,27.2894033 8.78292181,27.9408436 9.18467078,28.3426955 C9.38559671,28.5434156 9.64886831,28.6438272 9.91213992,28.6438272 C10.1754115,28.6438272 10.438786,28.5434156 10.6396091,28.3424897 L28.406893,10.5751029 L32.242284,14.4104938 C32.6440329,14.8122428 33.2954733,14.8122428 33.6973251,14.4104938 L44.5952675,3.51265432 L44.5952675,6.99104938 C44.5952675,7.55925926 45.0558642,8.01985597 45.6240741,8.01985597 C46.192284,8.01985597 46.6528807,7.55925926 46.6528807,6.99104938 L46.6528807,1.13168724 C46.6528807,1.1149177 46.6511317,1.09855967 46.6504115,1.081893 Z" id="Path"></path>
                <circle id="Oval" cx="6.44444444" cy="31.2047325" r="1.02880658"></circle>
            </g>
        </g>
    </g>
</svg>