<?xml version="1.0" encoding="UTF-8"?>
<svg width="50px" height="50px" viewBox="0 0 50 50" version="1.1" xmlns="http://www.w3.org/2000/svg" xmlns:xlink="http://www.w3.org/1999/xlink">
    <!-- Generator: Sketch 52.6 (67491) - http://www.bohemiancoding.com/sketch -->
    <title>review</title>
    <desc>Created with Sketch.</desc>
    <g id="Page-1" stroke="none" stroke-width="1" fill="none" fill-rule="evenodd">
        <g id="A4" transform="translate(-40.000000, -117.000000)" fill="#FFFFFF">
            <g id="review" transform="translate(40.000000, 117.000000)">
                <path d="M5.24460431,4.32098765 C4.73462456,4.32098765 4.32098765,4.73556615 4.32098765,5.24691358 C4.32098765,5.75826101 4.73453218,6.17283951 5.24460431,6.17283951 L5.2538414,6.17283951 C5.76382115,6.17283951 6.17283951,5.75826101 6.17283951,5.24691358 C6.17283951,4.73556615 5.75467643,4.32098765 5.24460431,4.32098765 Z" id="Path"></path>
                <path d="M10.1828759,4.32098765 C9.67289616,4.32098765 9.25925926,4.73556615 9.25925926,5.24691358 C9.25925926,5.75826101 9.67280379,6.17283951 10.1828759,6.17283951 L10.1920206,6.17283951 C10.7020004,6.17283951 11.1111111,5.75826101 11.1111111,5.24691358 C11.1111111,4.73556615 10.692948,4.32098765 10.1828759,4.32098765 Z" id="Path"></path>
                <path d="M14.5039096,4.32098765 C13.9939044,4.32098765 13.5802469,4.73556615 13.5802469,5.24691358 C13.5802469,5.75826101 13.9938121,6.17283951 14.5039096,6.17283951 L14.5130548,6.17283951 C15.02306,6.17283951 15.4320988,5.75826101 15.4320988,5.24691358 C15.4320988,4.73556615 15.0140072,4.32098765 14.5039096,4.32098765 Z" id="Path"></path>
                <path d="M38.5454409,4.32098765 L26.8866578,4.32098765 C26.3561847,4.32098765 25.9259259,4.73556615 25.9259259,5.24691358 C25.9259259,5.75826101 26.3560886,6.17283951 26.8866578,6.17283951 L38.5454409,6.17283951 C39.0759141,6.17283951 39.5061728,5.75826101 39.5061728,5.24691358 C39.5061728,4.73556615 39.0759141,4.32098765 38.5454409,4.32098765 Z" id="Path"></path>
                <path d="M22.5681827,38.5429284 C22.3958507,38.3706889 22.1570305,38.2716049 21.9135802,38.2716049 C21.67013,38.2716049 21.4312172,38.3706889 21.2590704,38.5429284 C21.0868309,38.7151678 20.9876543,38.9540806 20.9876543,39.1975309 C20.9876543,39.4409811 21.0867383,39.6798939 21.2590704,39.8520408 C21.4312172,40.0242802 21.6700374,40.1234568 21.9135802,40.1234568 C22.1571231,40.1234568 22.3959433,40.0243728 22.5681827,39.8520408 C22.7404222,39.6798939 22.8395062,39.4410737 22.8395062,39.1975309 C22.8395062,38.953988 22.7404222,38.7151678 22.5681827,38.5429284 Z" id="Path"></path>
                <path d="M44.7271484,12.525247 L44.7271484,4.88277969 C44.7271484,2.19038485 42.5370117,0 39.8449219,0 L4.88222656,0 C2.19013672,3.55455291e-16 0,2.19048252 0,4.88287736 L0,35.7392048 C0,38.325533 2.10380859,40.4295799 4.68974609,40.4295799 L8.35439453,40.4295799 L8.35439453,40.588094 C8.35439453,40.9222138 8.11660156,41.2119928 7.7890625,41.2772345 L4.10917969,42.0105207 C2.06416016,42.4181841 0.53828125,44.0848768 0.312304688,46.1580609 L0.0114257813,48.9175532 C-0.0186523437,49.1933657 0.0701171875,49.4688851 0.255273438,49.6754515 C0.440429688,49.8820179 0.704785156,50 0.982128906,50 L22.1523438,50 C22.4297852,50 22.6941406,49.8819202 22.8792969,49.6753538 C23.0644531,49.4687875 23.153125,49.1931703 23.1229492,48.9173578 L22.8212891,46.1569865 C22.5948242,44.0842908 21.069043,42.4180864 19.0246094,42.0106184 L15.344043,41.2772345 C15.0164063,41.2119928 14.7787109,40.9221162 14.7787109,40.588094 L14.7787109,39.6710956 C14.7787109,39.6661145 14.7780273,39.6613288 14.7779297,39.6563478 L16.4329102,38.7101469 C16.4511719,38.6997941 16.4689453,38.6887577 16.4864258,38.677233 C17.3738281,38.0911314 17.956543,37.0474585 18.0453125,35.8853151 C18.0472656,35.8605076 18.0481445,35.8357001 18.0481445,35.8108926 L18.0481445,31.8059468 C18.6316406,31.4258256 19.0576172,30.7347317 19.0576172,29.5250243 L19.0591797,27.3306351 C19.0591797,27.2943029 19.0572266,27.258459 19.0533203,27.2231034 C18.9533203,25.2905603 17.3799805,23.7894136 15.4338867,23.7894136 L7.13603516,23.7894136 C6.77177734,23.7894136 6.43369141,23.596423 6.21416016,23.4345883 C5.80292969,23.131429 5.26513672,23.085916 4.81015625,23.3158248 C4.35693359,23.5448547 4.07539063,24.0028167 4.07539063,24.5111751 L4.07539063,27.6886835 C4.07539063,28.768005 4.45478516,29.7600119 5.08642578,30.5398854 L5.08642578,35.8108926 C5.08642578,35.8357001 5.08740234,35.8605076 5.08925781,35.8853151 C5.16845703,36.9220537 5.64775391,37.8662036 6.38867188,38.4763313 L4.68974609,38.4763313 C3.18066406,38.4765266 1.95283203,37.2486532 1.95283203,35.7392048 L1.95283203,15.2411797 L12.8575195,15.2411797 C13.3966797,15.2411797 13.8339844,14.8039231 13.8339844,14.2646042 C13.8339844,13.7252853 13.3967773,13.2880287 12.8575195,13.2880287 L1.95292969,13.2880287 L1.95292969,10.5536369 L42.7743164,10.5536369 L42.7743164,12.4982908 L26.9233398,12.4982908 C23.7108398,12.4982908 21.097168,15.1121611 21.097168,18.3250251 L21.097168,26.4989003 C21.097168,29.7117642 23.7108398,32.3256345 26.9233398,32.3256345 L28.1439453,32.3256345 L28.1439453,35.1809385 C28.1439453,35.5760028 28.3819336,35.9320001 28.7466797,36.0831891 C28.8674805,36.1331948 28.9944336,36.1575139 29.1202148,36.1575139 C29.3744141,36.1575139 29.6240234,36.0582839 29.8108398,35.8714464 L33.35625,32.3255369 L42.7744141,32.3255369 L42.7744141,35.7391072 C42.7744141,37.2484578 41.546582,38.476429 40.0374023,38.476429 L26.1258789,38.476429 C25.5867188,38.476429 25.1494141,38.9136855 25.1494141,39.4530044 C25.1494141,39.9923233 25.5866211,40.4295799 26.1258789,40.4295799 L40.0373047,40.4295799 C42.6233398,40.4295799 44.7271484,38.3254353 44.7271484,35.7392048 L44.7271484,32.298776 C47.6810547,32.0189592 50,29.5252197 50,26.4989979 L50,18.3251228 C50,15.298901 47.6810547,12.8050639 44.7271484,12.525247 Z M15.4103516,43.2820515 L18.6431641,43.9261674 C19.8479492,44.166136 20.7467773,45.1478878 20.8802734,46.3690223 L21.0635742,48.0467514 L2.07099609,48.0467514 L2.25390625,46.3697059 C2.38701172,45.1480832 3.28603516,44.166136 4.49091797,43.9260698 L7.72402344,43.2818561 C8.78427734,44.2264944 10.1358398,44.7436428 11.5672852,44.7436428 C12.9987305,44.7436428 14.3501953,44.2263967 15.4103516,43.2820515 Z M9.68183594,42.2952209 C10.037793,41.8719308 10.2612305,41.3389603 10.2995117,40.7633091 C10.7033203,40.9612808 11.1351563,41.0618781 11.5672852,41.0618781 C11.9989258,41.0619758 12.4301758,40.9615738 12.8337891,40.7639928 C12.872168,41.3396439 13.0958984,41.8725168 13.4518555,42.2958069 C12.8832031,42.6180114 12.2386719,42.7903942 11.5672852,42.7903942 C10.8957031,42.7903942 10.2508789,42.6177184 9.68183594,42.2952209 Z M16.0954102,35.770263 C16.0461914,36.3024522 15.7948242,36.7811197 15.4325195,37.0326131 L12.1520508,38.9081185 C12.1337891,38.9184712 12.1160156,38.9295076 12.0985352,38.9410324 C11.7608398,39.1640069 11.3736328,39.1639092 11.0361328,38.9410324 C11.019043,38.9298006 11.0015625,38.9189596 10.9837891,38.9088022 L7.7125,37.0328084 C7.34375,36.7776037 7.08847656,36.2987409 7.03925781,35.7701654 L7.03925781,31.945025 C7.52958984,32.1269792 8.05966797,32.2266976 8.6125,32.2266976 L16.0954102,32.2266976 L16.0954102,35.770263 Z M6.02832031,27.6888788 C6.02832031,27.6888788 6.02832031,25.5383422 6.02832031,25.5383422 C6.39326172,25.6732208 6.76630859,25.7426623 7.13623047,25.7426623 L15.434082,25.7426623 C16.3451172,25.7426623 17.0791016,26.4559266 17.1048828,27.3665767 C17.1051758,27.3774178 17.1057617,27.3883565 17.1064453,27.3991976 L17.1048828,29.5244383 C17.1048828,29.5246336 17.1048828,29.5249267 17.1048828,29.525122 C17.1048828,30.0195139 17.0039063,30.1444304 16.9923828,30.1571272 C16.9529297,30.2002961 16.7819336,30.2734489 16.3915039,30.2734489 L8.61259766,30.2734489 C7.1875,30.2734489 6.02832031,29.1141379 6.02832031,27.6888788 Z M1.95292969,8.60058366 L1.95292969,4.88287736 C1.95292969,3.26745999 3.26699219,1.95324861 4.88222656,1.95324861 L39.8449219,1.95324861 C41.4601563,1.95324861 42.7742188,3.26745999 42.7742188,4.88287736 L42.7742188,8.60068133 L1.95292969,8.60068133 L1.95292969,8.60058366 Z M48.0470703,26.4989979 C48.0470703,28.6348844 46.3094727,30.3725813 44.1738281,30.3725813 L32.9515625,30.3725813 C32.6925781,30.3725813 32.4443359,30.4755226 32.2611328,30.6586488 L30.0967773,32.8233472 L30.0967773,31.3491567 C30.0967773,30.8099355 29.6595703,30.3725813 29.1203125,30.3725813 L26.9233398,30.3725813 C24.7876953,30.3725813 23.0500977,28.6348844 23.0500977,26.4989979 L23.0500977,18.3251228 C23.0500977,16.1892363 24.7876953,14.4515394 26.9233398,14.4515394 L44.1738281,14.4515394 C46.3094727,14.4515394 48.0470703,16.1892363 48.0470703,18.3251228 L48.0470703,26.4989979 Z" id="Shape" fill-rule="nonzero"></path>
                <path d="M27.7778292,19.1358025 C26.0759846,19.1358025 24.691358,20.5203492 24.691358,22.2222222 C24.691358,23.9240952 26.0758817,25.308642 27.7778292,25.308642 C29.4796739,25.308642 30.8641975,23.9240952 30.8641975,22.2222222 C30.8641975,20.5203492 29.4796739,19.1358025 27.7778292,19.1358025 Z M27.7778292,23.2510631 C27.210582,23.2510631 26.7490055,22.7895818 26.7490055,22.2222222 C26.7490055,21.6549655 27.2104791,21.1933813 27.7778292,21.1933813 C28.3451794,21.1933813 28.806653,21.6548626 28.806653,22.2222222 C28.806653,22.7895818 28.3449736,23.2510631 27.7778292,23.2510631 Z" id="Shape" fill-rule="nonzero"></path>
                <path d="M35.8024691,19.1358025 C34.1005961,19.1358025 32.7160494,20.5203492 32.7160494,22.2222222 C32.7160494,23.9240952 34.1005961,25.308642 35.8024691,25.308642 C37.5043421,25.308642 38.8888889,23.9240952 38.8888889,22.2222222 C38.8888889,20.5203492 37.5043421,19.1358025 35.8024691,19.1358025 Z M35.8024691,23.2510631 C35.2352124,23.2510631 34.7736283,22.7895818 34.7736283,22.2222222 C34.7736283,21.6549655 35.2351095,21.1933813 35.8024691,21.1933813 C36.3698287,21.1933813 36.83131,21.6548626 36.83131,22.2222222 C36.83131,22.7895818 36.3697258,23.2510631 35.8024691,23.2510631 Z" id="Shape" fill-rule="nonzero"></path>
                <path d="M43.2098251,19.1358025 C41.5079805,19.1358025 40.1234568,20.5203492 40.1234568,22.2222222 C40.1234568,23.9240952 41.5079805,25.308642 43.2098251,25.308642 C44.9116697,25.308642 46.2962963,23.9240952 46.2962963,22.2222222 C46.2962963,20.5203492 44.9116697,19.1358025 43.2098251,19.1358025 Z M43.2098251,23.2510631 C42.6425778,23.2510631 42.1810014,22.7895818 42.1810014,22.2222222 C42.1810014,21.6549655 42.642475,21.1933813 43.2098251,21.1933813 C43.7770723,21.1933813 44.2386488,21.6548626 44.2386488,22.2222222 C44.2386488,22.7895818 43.7769695,23.2510631 43.2098251,23.2510631 Z" id="Shape" fill-rule="nonzero"></path>
                <path d="M17.6298185,13.234379 C17.4576717,13.0621395 17.2188515,12.962963 16.9753086,12.962963 C16.7317658,12.962963 16.4930382,13.0620469 16.3207061,13.234379 C16.1484667,13.4065258 16.0493827,13.6445126 16.0493827,13.8888889 C16.0493827,14.1325244 16.1483741,14.3713445 16.3207061,14.5434914 C16.4929456,14.7157308 16.7317658,14.8148148 16.9753086,14.8148148 C17.2197775,14.8148148 17.4576717,14.7158234 17.6298185,14.5434914 C17.802984,14.3713445 17.9012346,14.1325244 17.9012346,13.8888889 C17.9012346,13.6454386 17.802984,13.4065258 17.6298185,13.234379 Z" id="Path"></path>
            </g>
        </g>
    </g>
</svg>