<?xml version="1.0" encoding="UTF-8"?>
<svg width="50px" height="50px" viewBox="0 0 50 50" version="1.1" xmlns="http://www.w3.org/2000/svg" xmlns:xlink="http://www.w3.org/1999/xlink">
    <!-- Generator: Sketch 52.6 (67491) - http://www.bohemiancoding.com/sketch -->
    <title>settings</title>
    <desc>Created with Sketch.</desc>
    <g id="Page-1" stroke="none" stroke-width="1" fill="none" fill-rule="evenodd">
        <g id="A4" transform="translate(-32.000000, -298.000000)" fill="#FFFFFF" fill-rule="nonzero">
            <g id="settings" transform="translate(32.000000, 298.000000)">
                <path d="M27.3333333,50 L22.6666667,50 C21.0895833,50 19.7583333,48.81875 19.5708333,47.25 L19.0729167,43.3416667 C18.0791667,43.01875 17.1208333,42.6208333 16.2104167,42.15625 L13.0979167,44.575 C11.8354167,45.5520833 10.0583333,45.4395833 8.9625,44.3125 L5.68125,41.03125 C4.5625,39.9458333 4.45,38.16875 5.42708333,36.9083333 L7.84583333,33.79375 C7.37916667,32.8833333 6.98125,31.925 6.66041667,30.93125 L2.74375,30.4333333 C1.18125,30.2416667 0,28.9104167 0,27.3333333 L0,22.6666667 C0,21.0895833 1.18125,19.7583333 2.75,19.5708333 L6.65833333,19.0729167 C6.98125,18.0791667 7.37916667,17.1208333 7.84375,16.2104167 L5.42708333,13.0979167 C4.44791667,11.8354167 4.5625,10.05625 5.69166667,8.96041667 L8.97291667,5.67916667 C10.0583333,4.56041667 11.8375,4.45 13.0958333,5.425 L16.2083333,7.84583333 C17.11875,7.38125 18.0770833,6.98333333 19.0729167,6.66041667 L19.5708333,2.74375 C19.7583333,1.18125 21.0895833,0 22.6666667,0 L27.3333333,0 C28.9104167,0 30.2416667,1.18125 30.4291667,2.75 L30.9270833,6.65833333 C31.9229167,6.98125 32.88125,7.37916667 33.7916667,7.84375 L36.9041667,5.425 C38.16875,4.44791667 39.94375,4.56041667 41.0395833,5.68958333 L44.3208333,8.97083333 C45.4395833,10.05625 45.5520833,11.8333333 44.575,13.09375 L42.15625,16.2083333 C42.6229167,17.11875 43.0208333,18.0770833 43.3416667,19.0708333 L47.2583333,19.56875 C48.81875,19.7583333 50,21.0895833 50,22.6666667 L50,27.3333333 C50,28.9104167 48.81875,30.2416667 47.25,30.4291667 L43.3416667,30.9270833 C43.01875,31.9208333 42.6208333,32.8791667 42.15625,33.7895833 L44.575,36.9020833 C45.5541667,38.1645833 45.4395833,39.9416667 44.3104167,41.0375 L41.0291667,44.31875 C39.94375,45.4375 38.1645833,45.5520833 36.90625,44.5729167 L33.7916667,42.1541667 C32.88125,42.6208333 31.9229167,43.01875 30.9291667,43.3395833 L30.43125,47.25625 C30.2416667,48.81875 28.9104167,50 27.3333333,50 Z M16.1041667,39.875 C16.2770833,39.875 16.4541667,39.91875 16.6125,40.00625 C17.7604167,40.6479167 19.0041667,41.1645833 20.3083333,41.5395833 C20.7083333,41.6541667 21.0020833,41.9958333 21.0541667,42.4083333 L21.6375,46.9916667 C21.7,47.5145833 22.1520833,47.9166667 22.6666667,47.9166667 L27.3333333,47.9166667 C27.8479167,47.9166667 28.3,47.5145833 28.3604167,47.0020833 L28.9458333,42.4104167 C28.9979167,41.9979167 29.2916667,41.65625 29.6916667,41.5416667 C30.9958333,41.1666667 32.2395833,40.65 33.3875,40.0083333 C33.7520833,39.8041667 34.20625,39.8395833 34.5333333,40.0958333 L38.1791667,42.9291667 C38.5979167,43.2541667 39.1854167,43.2270833 39.54375,42.8583333 L42.8458333,39.55625 C43.2229167,39.1895833 43.2520833,38.6020833 42.9270833,38.18125 L40.09375,34.5354167 C39.8375,34.20625 39.8020833,33.7541667 40.00625,33.3895833 C40.6479167,32.2416667 41.1645833,30.9979167 41.5395833,29.69375 C41.6541667,29.29375 41.9958333,29 42.4083333,28.9479167 L46.9916667,28.3645833 C47.5145833,28.3 47.9166667,27.8479167 47.9166667,27.3333333 L47.9166667,22.6666667 C47.9166667,22.1520833 47.5145833,21.7 47.0020833,21.6395833 L42.4104167,21.0541667 C41.9979167,21.0020833 41.65625,20.7083333 41.5416667,20.3083333 C41.1666667,19.0041667 40.65,17.7604167 40.0083333,16.6125 C39.8041667,16.2479167 39.8375,15.7958333 40.0958333,15.4666667 L42.9291667,11.8208333 C43.25625,11.4 43.2270833,10.8125 42.8604167,10.4583333 L39.5583333,7.15625 C39.19375,6.77708333 38.6041667,6.74791667 38.1833333,7.075 L34.5375,9.90833333 C34.20625,10.1645833 33.7541667,10.2 33.3895833,9.99583333 C32.2458333,9.35416667 31.0020833,8.83958333 29.69375,8.4625 C29.29375,8.34791667 29,8.00625 28.9479167,7.59375 L28.3645833,3.01041667 C28.3,2.48541667 27.8479167,2.08333333 27.3333333,2.08333333 L22.6666667,2.08333333 C22.1520833,2.08333333 21.7,2.48541667 21.6395833,2.99791667 L21.0541667,7.58958333 C21.0020833,8.00208333 20.7083333,8.34375 20.3083333,8.46041667 C19,8.83541667 17.75625,9.35208333 16.6125,9.99166667 C16.2479167,10.1979167 15.7958333,10.1604167 15.4645833,9.90625 L11.81875,7.07291667 C11.3979167,6.74583333 10.8125,6.775 10.45625,7.14166667 L7.15416667,10.4458333 C6.77708333,10.8125 6.74791667,11.4 7.07291667,11.8208333 L9.90625,15.4666667 C10.1625,15.7958333 10.1979167,16.2479167 9.99375,16.6125 C9.35,17.7604167 8.83541667,19.0041667 8.46041667,20.3083333 C8.34583333,20.7083333 8.00416667,21.0020833 7.59166667,21.0541667 L3.00833333,21.6375 C2.48541667,21.7 2.08333333,22.1520833 2.08333333,22.6666667 L2.08333333,27.3333333 C2.08333333,27.8479167 2.48541667,28.3 2.99791667,28.3604167 L7.58958333,28.9458333 C8.00208333,28.9979167 8.34375,29.2916667 8.45833333,29.6916667 C8.83333333,30.9958333 9.35,32.2395833 9.99166667,33.3875 C10.1958333,33.7520833 10.1625,34.2041667 9.90416667,34.5333333 L7.07083333,38.1791667 C6.74375,38.6 6.77291667,39.1875 7.13958333,39.5416667 L10.4416667,42.84375 C10.80625,43.2208333 11.3916667,43.25 11.8166667,42.925 L15.4625,40.0916667 C15.6520833,39.95 15.8770833,39.875 16.1041667,39.875 Z" id="Shape"></path>
                <path d="M25,35.3932584 C19.2691573,35.3932584 14.6067416,30.7308427 14.6067416,25 C14.6067416,19.2691573 19.2691573,14.6067416 25,14.6067416 C30.7308427,14.6067416 35.3932584,19.2691573 35.3932584,25 C35.3932584,30.7308427 30.7308427,35.3932584 25,35.3932584 Z M25,16.6853933 C20.4144944,16.6853933 16.6853933,20.4144944 16.6853933,25 C16.6853933,29.5855056 20.4144944,33.3146067 25,33.3146067 C29.5855056,33.3146067 33.3146067,29.5855056 33.3146067,25 C33.3146067,20.4144944 29.5855056,16.6853933 25,16.6853933 Z" id="Shape"></path>
            </g>
        </g>
    </g>
</svg>