<?xml version="1.0" encoding="UTF-8"?>
<svg width="50px" height="39px" viewBox="0 0 50 39" version="1.1" xmlns="http://www.w3.org/2000/svg" xmlns:xlink="http://www.w3.org/1999/xlink">
    <!-- Generator: Sketch 52.6 (67491) - http://www.bohemiancoding.com/sketch -->
    <title>workspace</title>
    <desc>Created with Sketch.</desc>
    <g id="Page-1" stroke="none" stroke-width="1" fill="none" fill-rule="evenodd">
        <g id="workspace" fill="#FFFFFF" fill-rule="nonzero">
            <path d="M46.9021363,0 L15.2904894,0 C13.582182,0 12.1923328,1.40980978 12.1923328,3.14287228 L12.1923328,5.93970664 L9.19632499,2.90035845 L4.12062156,8.04931942 L6.42453681,10.386487 L0,20.6234833 L6.52385361,30.9678673 L4.06046508,30.9678673 C2.14844589,30.9678673 0.592971066,32.5457922 0.592971066,34.4854076 L0.592971066,38.3331352 L17.8786831,38.3331352 L17.8786831,34.4854076 C17.8786831,32.5457922 16.3232083,30.9678673 14.4111891,30.9678673 L10.0484768,30.9678673 L3.52208407,20.6195207 L7.82649542,13.7606787 C7.68176829,15.8936711 8.40921254,18.0766918 10.0130274,19.7036545 L11.2450635,20.9535716 L12.1923328,19.9926303 L12.1923328,26.6903908 C12.1923328,28.4233543 13.5820843,29.8331641 15.2904894,29.8331641 L24.1511686,29.8331641 L23.6276314,35.3215255 L21.1773288,35.3215255 L21.1773288,38.3333333 L23.3403255,38.3333333 L38.8520072,38.3333333 L41.015004,38.3333333 L41.015004,35.3215255 L38.5647014,35.3215255 L38.0412619,29.8331641 L46.9018434,29.8331641 C48.6101508,29.8331641 50,28.4233543 50,26.6903908 L50,3.14297135 C50.0001953,1.40990885 48.6103461,0 46.9021363,0 Z M14.4110914,33.9796751 C14.6859949,33.9796751 14.9096286,34.2065365 14.9096286,34.4854076 L14.9096286,35.3214264 L3.56192798,35.3214264 L3.56192798,34.4854076 C3.56192798,34.2065365 3.78556166,33.9796751 4.06046508,33.9796751 L14.4110914,33.9796751 Z M10.3515053,8.55693415 C10.3244544,8.58120535 10.2972082,8.60498122 10.2704503,8.62974774 C10.1847078,8.70900063 10.1002348,8.78983857 10.0178126,8.87345037 C10.0162501,8.87503543 10.0146876,8.87642235 10.0130274,8.87800741 C10.0113672,8.87959247 10.0100977,8.88117753 10.0085352,8.88286165 C9.92630831,8.96647344 9.84662049,9.05206656 9.76859285,9.13894754 C9.74388572,9.16648792 9.71995984,9.19452363 9.695741,9.2223612 C9.66126821,9.26178951 9.62601416,9.30062343 9.59242028,9.34084427 L8.31946609,8.04951755 L9.19632499,7.1599039 L10.4692792,8.45123062 C10.4293376,8.48550749 10.3906656,8.52156755 10.3515053,8.55693415 Z M11.3638139,16.5742552 C10.6267017,15.2509301 10.5809007,13.6363507 11.2248485,12.2763712 C11.2293407,12.2669599 11.2338329,12.2575486 11.2383251,12.2482364 C11.2608838,12.2013781 11.2843214,12.1548171 11.3085403,12.1084541 C11.3149856,12.0960709 11.3217239,12.0838857 11.3283646,12.0716015 C11.3517045,12.0279134 11.3756304,11.9844234 11.4006305,11.9415277 C11.4089313,11.9271632 11.4175251,11.9129967 11.4260212,11.8986321 C11.4501424,11.8578169 11.4747519,11.8171007 11.5002402,11.7769789 C11.5105918,11.7607321 11.5214317,11.7446834 11.5319786,11.7285356 C11.5565881,11.6906924 11.5814906,11.6529482 11.6073696,11.6157984 C11.6205532,11.5969758 11.6344204,11.5783514 11.6477994,11.559727 C11.6722136,11.5256482 11.6966277,11.4916685 11.7220184,11.4580851 C11.7394013,11.4352009 11.7576631,11.412911 11.7755343,11.3903239 C11.7982883,11.3614957 11.8206516,11.3324693 11.8441869,11.3041364 C11.8689917,11.2741194 11.8949683,11.2449939 11.920652,11.2155713 C11.9385232,11.1950646 11.9559061,11.1741617 11.9741679,11.1539522 C12.0190899,11.104221 12.0650862,11.0554805 12.112352,11.0075325 C12.1649889,10.9541358 12.2187977,10.9025224 12.2734854,10.8521968 C12.2892082,10.8376341 12.3054192,10.8238639 12.3213372,10.8094993 C12.3611811,10.7737365 12.4014156,10.7382708 12.4422361,10.7042911 C12.4598143,10.6895303 12.4778808,10.6753638 12.4956543,10.6609002 C12.5364748,10.6279111 12.5774905,10.5953184 12.6191899,10.5639144 C12.6360845,10.5510358 12.6532721,10.5385535 12.6704597,10.5259721 C12.7148934,10.4933794 12.7598155,10.4615791 12.8051281,10.4307696 C12.819679,10.420863 12.8342298,10.4109564 12.848976,10.4012479 C12.8997574,10.3676645 12.9511248,10.3351708 13.0028828,10.3037668 C13.0125508,10.2978229 13.0222188,10.2917798 13.0318868,10.286034 C13.4143102,10.0584792 13.8224173,9.89204809 14.2426338,9.78654269 C14.2493721,9.78485856 14.2561104,9.78297631 14.2628487,9.78119312 C14.3288646,9.76494628 14.3952711,9.75038356 14.4618729,9.7371087 C14.4674393,9.73601897 14.4729081,9.73473111 14.4785722,9.73354232 C14.5465412,9.72026746 14.6147055,9.70877579 14.6831628,9.69857198 C14.6871667,9.69797759 14.6911707,9.69728412 14.6951746,9.69668973 C14.7643155,9.68668405 14.833847,9.67826343 14.9032809,9.67142787 C14.9066989,9.67113067 14.9101168,9.67073441 14.9135348,9.67033814 C14.9827734,9.66370071 15.0521096,9.65864834 15.1215434,9.65528009 C15.1258403,9.65508196 15.1299419,9.65478476 15.1342388,9.65458663 C15.2018172,9.65141652 15.2694932,9.64983146 15.3371693,9.64963333 C15.3434193,9.64963333 15.3496693,9.64953426 15.356017,9.64953426 C15.5472287,9.64983146 15.7383427,9.66211566 15.9282849,9.68638685 C15.9324841,9.68688218 15.9365857,9.68767471 15.9407849,9.68817004 C16.0233048,9.69896825 16.1055317,9.71273844 16.1874656,9.72809368 C16.2114891,9.73265072 16.2355126,9.73750496 16.2595362,9.74245827 C16.3229153,9.75543593 16.3859039,9.77009771 16.4487947,9.78575016 C16.4766269,9.79278385 16.5046543,9.79922315 16.5322911,9.80675217 C16.6069008,9.82696166 16.6811198,9.84915247 16.7549483,9.87312647 C16.7935226,9.88580693 16.8317064,9.89977525 16.8700854,9.91344637 C16.9186208,9.93068387 16.9669608,9.94821858 17.0150079,9.9671402 C17.0568049,9.98368424 17.0982113,10.001318 17.1396177,10.0190508 C17.1780944,10.0355949 17.2162782,10.0528324 17.2544619,10.0703671 C17.2969426,10.0900812 17.3394232,10.1096963 17.3812202,10.1307974 C17.4212595,10.1509078 17.4608104,10.1725042 17.5003613,10.1938035 C17.5336622,10.2117344 17.5672561,10.2288729 17.6000688,10.2475964 L14.4821855,13.41048 L11.3638139,16.5742552 Z M26.6105532,35.3214264 L27.1340904,29.833065 L35.058633,29.833065 L35.5820726,35.3214264 L26.6105532,35.3214264 Z M47.0312384,26.6902918 C47.0312384,26.762511 46.9732304,26.8213562 46.9020387,26.8213562 L37.7541514,26.8213562 L24.4384744,26.8213562 L15.2904894,26.8213562 C15.2192001,26.8213562 15.1612897,26.76261 15.1612897,26.6902918 L15.1612897,23.8858293 L47.0313361,23.8858293 L47.0313361,26.6902918 L47.0312384,26.6902918 Z M47.0312384,20.8740215 L15.1612897,20.8740215 L15.1612897,16.9807235 L21.9167848,10.1277264 L20.6846511,8.87790834 C19.9349412,8.11737783 19.0650159,7.55171035 18.1366919,7.17872646 C18.1286841,7.17555634 18.1205786,7.17268343 18.1124731,7.16951331 C18.0071016,7.12750928 17.9009488,7.0876847 17.7941125,7.05073305 C17.7628624,7.03993484 17.7310263,7.03032543 17.6996785,7.01992349 C17.6166704,6.99238311 17.5335646,6.96543713 17.4496775,6.94086873 C17.3962594,6.92521629 17.3423529,6.91134703 17.2886418,6.89688338 C17.2271181,6.88043841 17.1655944,6.8634981 17.1037777,6.84863819 C17.0306329,6.83090535 16.9570975,6.81545104 16.8834644,6.79979859 C16.8410814,6.79098171 16.7989914,6.78157043 16.7565108,6.77344701 C16.666862,6.75620951 16.5767249,6.74134959 16.4862949,6.7272822 C16.4600252,6.72322049 16.4340486,6.71886158 16.4077789,6.71509707 C16.3049465,6.70023716 16.2017234,6.68795296 16.0982074,6.67755102 C16.0845355,6.67616409 16.0709612,6.6746781 16.0573869,6.67329117 C15.9446912,6.66249297 15.8316048,6.65436955 15.7183231,6.64872278 C15.7139286,6.64852465 15.7096317,6.64822745 15.7052371,6.64802932 C15.5241817,6.6393115 15.3428334,6.63465539 15.1608991,6.63921243 L15.1608991,3.14297135 C15.1608991,3.07065309 15.2189071,3.01190688 15.2900988,3.01190688 L46.9017457,3.01190688 C46.9730351,3.01190688 47.0309454,3.07075215 47.0309454,3.14297135 L47.0312384,20.8740215 Z" id="Shape"></path>
        </g>
    </g>
</svg>