<?xml version="1.0" encoding="UTF-8"?>
<svg width="50px" height="65px" viewBox="0 0 50 65" version="1.1" xmlns="http://www.w3.org/2000/svg" xmlns:xlink="http://www.w3.org/1999/xlink">
    <!-- Generator: Sketch 52.6 (67491) - http://www.bohemiancoding.com/sketch -->
    <title>contact-form</title>
    <desc>Created with Sketch.</desc>
    <g id="Page-1" stroke="none" stroke-width="1" fill="none" fill-rule="evenodd">
        <g id="A4" transform="translate(-471.000000, -150.000000)" fill="#FFFFFF">
            <g id="contact-form" transform="translate(471.000000, 150.000000)">
                <path d="M48.9847716,57.7469543 C49.510533,57.7469543 49.9365482,57.3208122 49.9365482,56.7951777 L49.9365482,11.7385787 C49.9365482,11.2129442 49.510533,10.786802 48.9847716,10.786802 L46.1294416,10.786802 L46.1294416,6.34517766 C46.1294416,5.81954315 45.7034264,5.39340102 45.177665,5.39340102 L42.3220812,5.39340102 L42.3220812,0.95177665 C42.3220812,0.426142132 41.896066,0 41.3703046,0 L1.01522843,0 C0.489467005,0 0.0634517766,0.426142132 0.0634517766,0.95177665 L0.0634517766,4.04479695 C0.0634517766,4.57043147 0.489467005,4.9965736 1.01522843,4.9965736 C1.54098985,4.9965736 1.96700508,4.57043147 1.96700508,4.04479695 L1.96700508,1.9035533 L40.4185279,1.9035533 L40.4185279,52.284264 L1.96700508,52.284264 L1.96700508,8.18527919 C1.96700508,7.65964467 1.54098985,7.23350254 1.01522843,7.23350254 C0.489467005,7.23350254 0.0634517766,7.65964467 0.0634517766,8.18527919 L0.0634517766,53.2360406 C0.0634517766,53.7616751 0.489467005,54.1878173 1.01522843,54.1878173 L3.87081218,54.1878173 L3.87081218,58.6294416 C3.87081218,59.1550761 4.29682741,59.5812183 4.82258883,59.5812183 L7.67791878,59.5812183 L7.67791878,64.0228426 C7.67791878,64.5484772 8.10393401,64.9746193 8.62969543,64.9746193 L48.9847716,64.9746193 C49.510533,64.9746193 49.9365482,64.5484772 49.9365482,64.0228426 L49.9365482,60.8767766 C49.9365482,60.3511421 49.510533,59.925 48.9847716,59.925 C48.4590102,59.925 48.0329949,60.3511421 48.0329949,60.8767766 L48.0329949,63.071066 L9.58147208,63.071066 L9.58147208,59.5812183 L13.921066,59.5812183 C14.4468274,59.5812183 14.8728426,59.1550761 14.8728426,58.6294416 C14.8728426,58.1038071 14.4468274,57.677665 13.921066,57.677665 L5.77436548,57.677665 L5.77436548,54.1878173 L41.3703046,54.1878173 C41.896066,54.1878173 42.3220812,53.7616751 42.3220812,53.2360406 L42.3220812,7.29695431 L44.2258883,7.29695431 L44.2258883,57.677665 L18.0173858,57.677665 C17.4916244,57.677665 17.0656091,58.1038071 17.0656091,58.6294416 C17.0656091,59.1550761 17.4916244,59.5812183 18.0173858,59.5812183 L45.177665,59.5812183 C45.7034264,59.5812183 46.1294416,59.1550761 46.1294416,58.6294416 L46.1294416,12.6903553 L48.0329949,12.6903553 L48.0329949,56.7951777 C48.0329949,57.3208122 48.4590102,57.7469543 48.9847716,57.7469543 Z" id="Path"></path>
                <path d="M34.6885787,15.7994924 L34.6885787,8.18527919 C34.6885787,7.65964467 34.2625635,7.23350254 33.736802,7.23350254 L8.60609137,7.23350254 C8.08032995,7.23350254 7.65431472,7.65964467 7.65431472,8.18527919 L7.65431472,15.7994924 C7.65431472,16.3251269 8.08032995,16.751269 8.60609137,16.751269 L33.7366751,16.751269 C34.2624365,16.751269 34.6885787,16.3251269 34.6885787,15.7994924 Z M32.7850254,14.8477157 L9.55786802,14.8477157 L9.55786802,9.13705584 L32.7850254,9.13705584 L32.7850254,14.8477157 Z" id="Shape" fill-rule="nonzero"></path>
                <path d="M7.14873096,39.9746193 C7.14873096,40.5002538 7.57474619,40.9263959 8.10050761,40.9263959 L33.7348985,40.9263959 C34.2606599,40.9263959 34.6866751,40.5002538 34.6866751,39.9746193 C34.6866751,39.4489848 34.2606599,39.0228426 33.7348985,39.0228426 L8.10050761,39.0228426 C7.57474619,39.0228426 7.14873096,39.4489848 7.14873096,39.9746193 Z" id="Path"></path>
                <path d="M8.10050761,44.9873096 L33.7348985,44.9873096 C34.2606599,44.9873096 34.6866751,44.5611675 34.6866751,44.035533 C34.6866751,43.5098985 34.2606599,43.0837563 33.7348985,43.0837563 L8.10050761,43.0837563 C7.57474619,43.0837563 7.14873096,43.5098985 7.14873096,44.035533 C7.14873096,44.5611675 7.57474619,44.9873096 8.10050761,44.9873096 Z" id="Path"></path>
                <path d="M13.7475888,34.0101523 C13.7475888,34.5357868 14.1736041,34.9619289 14.6993655,34.9619289 C15.2251269,34.9619289 15.6511421,34.5357868 15.6511421,34.0101523 C15.6511421,31.1062183 18.0137056,28.7436548 20.9176396,28.7436548 C23.8215736,28.7436548 26.1841371,31.1062183 26.1841371,34.0101523 C26.1841371,34.5357868 26.6101523,34.9619289 27.1359137,34.9619289 C27.6616751,34.9619289 28.0876904,34.5357868 28.0876904,34.0101523 C28.0876904,31.1794416 26.4384518,28.7271574 24.0507614,27.5621827 C25.0461929,26.6893401 25.6765228,25.4096447 25.6765228,23.9847716 C25.6765228,21.3606599 23.5417513,19.2258883 20.9176396,19.2258883 C18.2935279,19.2258883 16.1587563,21.3606599 16.1587563,23.9847716 C16.1587563,25.4096447 16.7890863,26.6893401 17.7845178,27.5621827 C15.3968274,28.7271574 13.7475888,31.1794416 13.7475888,34.0101523 Z M18.0623096,23.9847716 C18.0623096,22.4102792 19.3432741,21.1294416 20.9176396,21.1294416 C22.4920051,21.1294416 23.7729695,22.4102792 23.7729695,23.9847716 C23.7729695,25.559264 22.4920051,26.8401015 20.9176396,26.8401015 C19.3432741,26.8401015 18.0623096,25.559264 18.0623096,23.9847716 Z" id="Shape" fill-rule="nonzero"></path>
            </g>
        </g>
    </g>
</svg>